<svg xmlns="http://www.w3.org/2000/svg" viewBox="0 0 800 800"><style>.st0{fill:#ffce00}.st1{fill:#562912}.st2{fill:#61c0eb}.st3{opacity:.4}.st4{fill:#e55725}.st5{fill:#cc342f}.st6{fill:url(#SVGID_1_)}.st7{fill:#fff}.st8{fill:#d24103}.st9{fill:#8d4d21}.st10{fill:#261f11}.st11{fill:#483d23}.st12{fill:url(#SVGID_2_)}.st13{fill:#20bee8}.st14{fill:#0cacc6}.st15{fill:#1ccb32}</style><g id="Layer_1_1_"><circle class="st0" cx="80.5" cy="395.5" r="43.3"/><path class="st1" d="M58.7 402.3c-1.3 0-2.2 1.2-1.8 2.5 2.3 8.3 12.1 14.5 23.8 14.5 11.8 0 21.7-6.3 23.9-14.6.3-1.2-.6-2.3-1.9-2.3h-44z"/><path class="st1" d="M80.7 405.5c6.4 0 12.3-1.2 17-3.2h-34c4.7 2 10.6 3.2 17 3.2zM81.1 414.7c-3.4 0-6.5 1.3-8.7 3.4 2.6.7 5.4 1.1 8.2 1.1 3.1 0 6.1-.5 8.9-1.3-2.1-1.9-5.1-3.2-8.4-3.2zM109.3 393.8c.4.3 1 0 1-.6 0-3.2-2.6-5.7-5.7-5.7-3.2 0-5.7 2.6-5.7 5.7 0 .5.6.8 1 .6 1.4-.8 3-1.3 4.7-1.3 1.8 0 3.4.5 4.7 1.3zM61.5 393.8c.4.3 1 0 1-.6 0-3.2-2.6-5.7-5.7-5.7s-5.7 2.6-5.7 5.7c0 .5.6.8 1 .6 1.4-.8 3-1.3 4.7-1.3 1.7 0 3.3.5 4.7 1.3zM52.8 384h-.3c-.8-.2-1.2-.9-1.1-1.7.5-2.4 2.1-4.3 4.3-5.3 2.2-1 4.9-.9 6.8.2.7.4.9 1.3.5 1.9-.4.7-1.3.9-1.9.5-1.1-.6-2.8-.7-4.2-.1-1 .4-2.2 1.3-2.7 3.3-.1.8-.7 1.2-1.4 1.2zM108.6 384c-.6 0-1.2-.4-1.4-1.1-.4-1.9-1.7-2.9-2.7-3.3-1.4-.6-3.1-.6-4.2.1-.7.4-1.5.2-1.9-.5-.4-.7-.2-1.5.5-1.9 1.9-1.1 4.5-1.2 6.8-.2 2.2 1 3.7 2.8 4.3 5.3.2.8-.3 1.5-1.1 1.7-.1-.1-.2-.1-.3-.1z"/><path class="st2" d="M125.6 386c0 4.3-2.9 7.8-6.5 7.8s-6.5-3.5-6.5-7.8c0-3.3 3.8-11.2 5.6-14.8.4-.8 1.5-.8 1.8 0 1.8 3.6 5.6 11.5 5.6 14.8z"/><circle class="st0" cx="337.2" cy="399.7" r="43.3"/><ellipse class="st1" cx="318.7" cy="391.8" rx="4.4" ry="5.3"/><path class="st1" d="M358.6 397.1c-.3 0-.7-.1-1-.4-2.9-2.7-7.2-.6-7.2-.6-.6.3-1.3.2-1.7-.3-.4-.5-.5-1.2-.1-1.7 2.2-3.4 6.2-5.4 10.2-5.1.8.1 1.4.7 1.3 1.5-.1.8-.7 1.4-1.5 1.3-1.3-.1-2.6.2-3.9.7 1.6.1 3.3.7 4.8 2.1.6.5.6 1.4.1 2-.2.4-.6.5-1 .5z"/><g><path class="st1" d="M340.1 427.9c-4.7 0-9.3-1.6-13-4.5-.9-.7-1.1-2-.4-3 .7-.9 2-1.1 3-.4 3.1 2.4 7 3.7 10.9 3.6 9.4-.3 16.7-8.1 16.5-17.5 0-1.2.9-2.1 2.1-2.2 1.1-.1 2.1.9 2.2 2.1.4 11.7-8.9 21.5-20.6 21.8-.2.1-.4.1-.7.1z"/></g><g><circle class="st0" cx="592.9" cy="401" r="43.3"/><path class="st1" d="M577.8 410.3c-1.3-.2-2.2 1.3-1.3 2.3 3.8 4.4 9.8 7.3 16.5 7.3 6.7 0 12.7-2.9 16.5-7.3.9-1 0-2.5-1.3-2.3-4.5.7-9.7 1.1-15.1 1.1-5.6.1-10.8-.3-15.3-1.1zM608.9 394.5c-.3-.2-.7.1-.6.4.5 2.6 3.1 4.6 6.2 4.6s5.7-2 6.2-4.6c.1-.3-.3-.6-.6-.4-1.6.9-3.5 1.4-5.6 1.4-2.1 0-4.1-.5-5.6-1.4zM565.8 394.5c-.3-.2-.7.1-.6.4.5 2.6 3.1 4.6 6.2 4.6s5.7-2 6.2-4.6c.1-.3-.3-.6-.6-.4-1.6.9-3.5 1.4-5.6 1.4s-4-.5-5.6-1.4z"/><g><g class="st3"><circle class="st4" cx="620.3" cy="409.6" r="6.7"/></g><g class="st3"><circle class="st4" cx="565.6" cy="409.6" r="6.7"/></g></g></g><g><circle class="st0" cx="209" cy="397.7" r="43.3"/><path class="st1" d="M208.3 417.6c-.6 0-1.2-.5-1.3-1.1-.1-.7.4-1.4 1.1-1.6 1.5-.3 4.1-1.5 4.5-2.8.1-.3.2-.6-.3-1.2-.9-1.2-3.5 0-4.8 1-.6.4-1.4.3-1.9-.3-.4-.6-.3-1.4.3-1.9 2.8-2 6.5-3 8.5-.5 1.2 1.5 1.1 2.9.7 3.9-1 2.7-4.9 4.2-6.6 4.5h-.2z"/><path class="st1" d="M211.1 424.8c-1.7 0-3.6-.8-5.2-2-.6-.4-.7-1.3-.3-1.9.4-.6 1.3-.7 1.9-.3 1.4 1 3.9 2.1 4.8 1 .5-.6.4-1 .3-1.2-.5-1.3-3.1-2.6-4.5-2.8-.7-.1-1.2-.8-1.1-1.6.1-.7.8-1.2 1.6-1.1 1.7.3 5.6 1.8 6.6 4.5.3.9.5 2.3-.7 3.9-1 1.1-2.1 1.5-3.4 1.5zM220.9 399.8c-.5 0-1.1-.2-1.5-.6-.8-.8-.8-2.2 0-3 2.6-2.6 8.2-4.7 13 0 .8.8.8 2.2 0 3-.8.8-2.2.8-3 0-3.4-3.4-6.6-.4-7 0-.5.4-1 .6-1.5.6z"/><ellipse class="st1" cx="192.8" cy="396.4" rx="4.6" ry="6"/><path class="st5" d="M239.6 412.1c12.7-6 17 8.3 9.7 14.5-5.7 4.8-18.4 8.2-18.4 8.2-.7-1-7.2-11-8.2-18.4-1.3-9.4 11.4-17.2 16.9-4.3z"/><path class="st1" d="M182.9 384.7c-.8-.1-1.3-.6-1.2-1.3.2-3 1.6-5.8 3.8-7.8 2.2-2 5.1-3.2 8.1-3.1.7 0 1.2.6 1.2 1.2 0 .7-.6 1.3-1.2 1.2-2.3 0-4.7.8-6.4 2.4-1.7 1.6-2.8 3.8-3 6.2-.1.7-.6 1.2-1.3 1.2z"/><g><path class="st1" d="M232.3 390.2c-.3 0-.5-.1-.8-.3-3.3-2.7-6.7-3-9.8-.8-.5.4-1.3.3-1.7-.3-.4-.5-.3-1.3.3-1.7 4-2.9 8.7-2.5 12.8.9.5.4.6 1.2.2 1.7-.3.4-.7.5-1 .5z"/></g></g><g><circle class="st0" cx="465" cy="399.6" r="43.3"/><path class="st1" d="M465 425.9c-4.8 0-8.6-3.9-8.6-8.6v-5.1c0-4.8 3.9-8.6 8.6-8.6 4.8 0 8.6 3.9 8.6 8.6v5.1c.1 4.7-3.8 8.6-8.6 8.6z"/><path class="st2" d="M489 390.1l-5.7-2v49.6c4.2-1.6 8.1-3.9 11.4-6.8v-42.8l-5.7 2zM441.1 390.1l-5.7-2v42.8c3.4 2.9 7.2 5.2 11.4 6.8v-49.6l-5.7 2z"/><path class="st1" d="M436.4 387.2c-.4-.3-1 0-1 .6 0 3.2 2.6 5.7 5.7 5.7 3.2 0 5.7-2.6 5.7-5.7 0-.5-.6-.8-1-.6-1.4.8-3 1.3-4.7 1.3-1.7 0-3.3-.5-4.7-1.3z"/><g><path class="st1" d="M484.3 387.2c-.4-.3-1 0-1 .6 0 3.2 2.6 5.7 5.7 5.7s5.7-2.6 5.7-5.7c0-.5-.6-.8-1-.6-1.4.8-3 1.3-4.7 1.3s-3.3-.5-4.7-1.3z"/></g><g><path class="st1" d="M493.1 381.7h-.2c-7-1.1-10.6-6.8-10.7-7-.4-.7-.2-1.5.5-1.9.7-.4 1.5-.2 1.9.5.1.1 3.1 4.8 8.7 5.7.8.1 1.3.8 1.2 1.6-.2.6-.8 1.1-1.4 1.1zM437 381.7c-.7 0-1.3-.5-1.4-1.2-.1-.8.4-1.5 1.2-1.6 5.7-.9 8.7-5.7 8.7-5.7.4-.7 1.3-.9 1.9-.5.7.4.9 1.3.5 1.9-.1.2-3.7 5.9-10.7 7 0 .1-.1.1-.2.1z"/></g></g><g><linearGradient id="SVGID_1_" gradientUnits="userSpaceOnUse" x1="720.802" y1="344.332" x2="720.802" y2="432.436"><stop offset="0" stop-color="#2a97ff"/><stop offset=".468" stop-color="#75bebe"/><stop offset=".763" stop-color="#d9ca34"/><stop offset="1" stop-color="#ffce00"/></linearGradient><circle class="st6" cx="720.8" cy="396.9" r="43.3"/><path class="st1" d="M694.4 382.3c-.4 0-.8-.2-1.1-.5-.5-.6-.4-1.5.2-2 2.8-2.4 6.4-3.9 10.1-4.3.8-.1 1.5.5 1.5 1.3.1.8-.5 1.5-1.3 1.5-3.1.3-6.2 1.6-8.5 3.6-.2.3-.6.4-.9.4zM746.7 382.3c-.3 0-.7-.1-.9-.3-2.4-2-5.4-3.3-8.5-3.6-.8-.1-1.3-.8-1.3-1.5.1-.8.7-1.4 1.5-1.3 3.7.3 7.3 1.9 10.1 4.3.6.5.7 1.4.2 2-.3.3-.7.4-1.1.4z"/><ellipse class="st1" cx="702.5" cy="398" rx="4.4" ry="6.3"/><ellipse class="st1" cx="738.6" cy="398" rx="4.4" ry="6.3"/><g><path class="st1" d="M733.5 421.9c1.1.2 1.9-1.4 1.1-2.5-3.3-4.8-8.4-7.9-14.1-7.9-5.7 0-10.8 3.1-14.1 7.9-.7 1.1 0 2.8 1.2 2.5 3.9-.8 8.3-1.2 12.9-1.2 4.7 0 9.1.4 13 1.2z"/></g></g><g><circle class="st0" cx="464.7" cy="241.3" r="43.3"/><path class="st5" d="M491.2 216.5c-7.1-13.5-20.1-3.9-17.8 6.1 1.8 7.9 10.5 19.1 10.5 19.1 1.2-.4 13.3-4.8 19.1-10.5 7.2-7.2 1.3-22.3-11.8-14.7zM438.2 216.5c7.1-13.5 20.1-3.9 17.8 6.1-1.8 7.9-10.5 19.1-10.5 19.1-1.2-.4-13.3-4.8-19.1-10.5-7.3-7.2-1.4-22.3 11.8-14.7z"/><path class="st1" d="M448.9 250c-1.1-.4-2.1.8-1.8 2.1 1.9 7.4 9 12.9 17.6 12.9 8.6 0 15.7-5.5 17.6-12.9.3-1.3-.7-2.4-1.8-2.1-4.8 1.6-10.1 2.5-15.8 2.5-5.7 0-11.1-.9-15.8-2.5z"/><path class="st5" d="M464.7 257.5c-3.8 0-7 2.3-8.4 5.6 2.5 1.2 5.4 1.9 8.4 1.9 3.1 0 5.9-.7 8.4-1.9-1.4-3.4-4.6-5.6-8.4-5.6z"/><circle class="st0" cx="80.5" cy="235.1" r="43.3"/><path class="st1" d="M100.3 248.5H60.8c-1.2 0-2.1-.9-2.1-2.1 0-1.2.9-2.1 2.1-2.1h39.5c1.2 0 2.1.9 2.1 2.1 0 1.1-1 2.1-2.1 2.1z"/><circle class="st1" cx="98.6" cy="227.7" r="4.6"/><circle class="st1" cx="62.4" cy="227.7" r="4.6"/><g><circle class="st0" cx="208.6" cy="238.4" r="43.3"/><path class="st1" d="M231.5 223.4c0 1.3-.3 2.6-.8 3.6-.3.7-1.2 1-1.7.5-.6-.5-1.4-.7-2.1-.7-.8 0-1.5.3-2.1.7-.6.4-1.4.1-1.7-.5-.5-1-.8-2.3-.8-3.6 0-3.6 2.1-6.6 4.6-6.6 2.6 0 4.6 3 4.6 6.6zM194.9 223.4c0 1.3-.3 2.6-.8 3.6-.3.7-1.2 1-1.7.5-.6-.5-1.4-.7-2.1-.7-.8 0-1.5.3-2.1.7-.6.4-1.4.1-1.7-.5-.5-1-.8-2.3-.8-3.6 0-3.6 2.1-6.6 4.6-6.6 2.5 0 4.6 3 4.6 6.6z"/><g><path class="st1" d="M186.6 240.3c-1.3 0-2.2 1.2-1.8 2.5 2.3 8.3 12.1 14.5 23.8 14.5 11.8 0 21.7-6.3 23.9-14.6.3-1.2-.6-2.3-1.9-2.3h-44z"/><path class="st7" d="M208.6 243.5c6.4 0 12.3-1.2 17-3.2h-34c4.6 2 10.5 3.2 17 3.2z"/><path class="st5" d="M209 252.8c-3.4 0-6.5 1.3-8.7 3.4 2.6.7 5.4 1.1 8.3 1.1 3.1 0 6.1-.5 8.9-1.3-2.2-2-5.2-3.2-8.5-3.2z"/></g></g><g><circle class="st0" cx="336.6" cy="241.5" r="43.3"/><path class="st1" d="M308.7 228h-.3c-.8-.2-1.2-.9-1.1-1.7.5-2.4 2.1-4.3 4.3-5.3 2.2-1 4.9-.9 6.8.2.7.4.9 1.3.5 1.9-.4.7-1.3.9-1.9.5-1.1-.6-2.8-.7-4.2-.1-1 .4-2.2 1.3-2.7 3.3-.1.7-.7 1.2-1.4 1.2zM364.5 228c-.6 0-1.2-.4-1.4-1.1-.4-1.9-1.7-2.9-2.7-3.3-1.4-.6-3.1-.6-4.2.1-.7.4-1.5.2-1.9-.5-.4-.7-.2-1.5.5-1.9 1.9-1.1 4.5-1.2 6.8-.2 2.2 1 3.8 2.8 4.3 5.3.2.8-.3 1.5-1.1 1.7-.1-.1-.2-.1-.3-.1zM321.4 245.2c-.5 0-1.1-.2-1.5-.6l-10.3-10.3c-.8-.8-.8-2.2 0-3 .8-.8 2.2-.8 3 0l10.3 10.3c.8.8.8 2.2 0 3-.4.4-.9.6-1.5.6z"/><path class="st1" d="M311.2 245.2c-.5 0-1.1-.2-1.5-.6-.8-.8-.8-2.2 0-3l10.3-10.3c.8-.8 2.2-.8 3 0 .8.8.8 2.2 0 3l-10.3 10.3c-.5.4-1 .6-1.5.6z"/><g><path class="st1" d="M362.1 245.2c-.5 0-1.1-.2-1.5-.6l-10.3-10.3c-.8-.8-.8-2.2 0-3 .8-.8 2.2-.8 3 0l10.3 10.3c.8.8.8 2.2 0 3-.4.4-1 .6-1.5.6z"/><path class="st1" d="M351.8 245.2c-.5 0-1.1-.2-1.5-.6-.8-.8-.8-2.2 0-3l10.3-10.3c.8-.8 2.2-.8 3 0 .8.8.8 2.2 0 3l-10.3 10.3c-.4.4-.9.6-1.5.6z"/></g><g><path class="st7" d="M336.6 250.4c-3.3 0-6.3 1.4-8.3 3.6h16.6c-2-2.2-5-3.6-8.3-3.6z"/><path class="st1" d="M343.3 270c2.7-2 4.4-5.1 4.4-8.7 0-2.8-1.1-5.3-2.8-7.3h-16.6c-1.8 1.9-2.8 4.5-2.8 7.3 0 3.6 1.7 6.7 4.4 8.7 1.9-1.1 4.2-1.8 6.7-1.8 2.5.1 4.8.7 6.7 1.8z"/><path class="st5" d="M343.3 270c-1.9-1.1-4.2-1.8-6.7-1.8s-4.8.6-6.7 1.8c1.9 1.4 4.2 2.2 6.7 2.2 2.6 0 4.9-.8 6.7-2.2z"/></g></g><g><circle class="st0" cx="720.8" cy="238.9" r="43.3"/><path class="st1" d="M743.2 244.1c-.1 0-.3 0-.4-.1l-9.2-2.7c-.6-.2-1-.6-1-1.2-.1-.6.2-1.1.8-1.4 0 0 7.2-3.7 9.3-4.8.7-.4 1.5-.1 1.9.6.4.7.1 1.5-.6 1.9-1.2.6-4 2.1-6.2 3.2l5.8 1.7c.7.2 1.2 1 1 1.7-.2.7-.8 1.1-1.4 1.1zM698.4 244.1c-.6 0-1.2-.4-1.4-1-.2-.7.2-1.5 1-1.7l5.8-1.7c-2.2-1.1-5-2.6-6.2-3.2-.7-.4-.9-1.2-.6-1.9.4-.7 1.2-1 1.9-.6 2.1 1.1 9.3 4.8 9.3 4.8.5.3.8.8.8 1.4-.1.6-.5 1.1-1 1.2l-9.2 2.7h-.4zM748.8 226.3h-.2c-7-1.1-10.6-6.8-10.7-7-.4-.7-.2-1.5.5-1.9.7-.4 1.5-.2 1.9.5 0 0 3 4.8 8.7 5.7.8.1 1.3.8 1.2 1.6-.1.6-.7 1.1-1.4 1.1zM692.8 226.3c-.7 0-1.3-.5-1.4-1.2-.1-.8.4-1.5 1.2-1.6 5.8-.9 8.7-5.7 8.7-5.7.4-.7 1.3-.9 1.9-.5.7.4.9 1.3.5 1.9-.1.2-3.7 5.9-10.7 7-.1 0-.1.1-.2.1z"/><g><path class="st1" d="M705.6 264c-.5 0-1.1-.2-1.5-.6l-3.8-3.6c-.8-.8-.9-2.1-.1-3 .8-.8 2.1-.9 3-.1l2.3 2.2 6.2-5.9c.8-.8 2.1-.8 2.9 0l6.1 5.9 6.2-5.9c.8-.8 2.1-.8 2.9 0l6.2 5.9 2.3-2.2c.8-.8 2.2-.8 3 .1.8.8.8 2.2-.1 3l-3.8 3.6c-.8.8-2.1.8-2.9 0l-6.2-5.9-6.2 5.9c-.8.8-2.1.8-2.9 0l-6.1-5.9-6.1 5.9c-.4.5-.9.6-1.4.6z"/></g></g><g><circle class="st8" cx="592.7" cy="243.4" r="43.3"/><ellipse class="st1" cx="576.1" cy="245.8" rx="4.4" ry="6.3"/><ellipse class="st1" cx="609.4" cy="245.8" rx="4.4" ry="6.3"/><path class="st1" d="M583.2 241.7c-.5 0-1-.3-1.2-.9-1.3-4.4-5.7-7.8-11-8.4-.7-.1-1.1-.7-1.1-1.3.1-.7.7-1.2 1.3-1.1 6.3.7 11.5 4.8 13.1 10.2.2.6-.2 1.3-.8 1.5h-.3zM602.3 241.7h-.3c-.6-.2-1-.9-.8-1.5 1.6-5.4 6.8-9.4 13.1-10.2.7-.1 1.3.4 1.3 1.1.1.7-.4 1.3-1.1 1.3-5.3.6-9.7 4-11 8.4-.2.5-.7.9-1.2.9z"/><g><path class="st1" d="M601.5 266.2c-.5 0-1-.2-1.3-.5-1.8-1.7-4.3-2.7-7-2.8-3-.1-5.8.9-7.8 2.8-.8.8-2 .7-2.8-.1-.7-.8-.7-2 .1-2.8 2.7-2.6 6.6-4 10.6-3.8 3.6.1 7 1.5 9.5 3.8.8.7.8 2 .1 2.8-.4.4-.9.6-1.4.6z"/></g></g></g><g><circle class="st0" cx="207.6" cy="80.2" r="43.3"/><path class="st1" d="M236.2 74.7c.4.3 1 0 1-.6 0-3.2-2.6-5.7-5.7-5.7-3.2 0-5.7 2.6-5.7 5.7 0 .5.6.8 1 .6 1.4-.8 3-1.3 4.7-1.3 1.7-.1 3.3.4 4.7 1.3zM188.3 74.7c.4.3 1 0 1-.6 0-3.2-2.6-5.7-5.7-5.7-3.2 0-5.7 2.6-5.7 5.7 0 .5.6.8 1 .6 1.4-.8 3-1.3 4.7-1.3 1.8-.1 3.4.4 4.7 1.3zM185.5 86.8c-1.4.5-2.2 2-1.6 3.3 3.2 8.2 12.7 15 23.8 15 11.1 0 20.5-6.9 23.8-15 .5-1.4-.3-2.9-1.6-3.3-13.5-4.5-31.1-4.5-44.4 0z"/><path class="st5" d="M195.7 102.4c3.5 1.7 7.6 2.8 11.9 2.8 4.3 0 8.4-1 11.9-2.8-3.3-2.5-7.4-4-11.9-4s-8.6 1.5-11.9 4z"/><circle class="st0" cx="334.7" cy="80.2" r="43.3"/><path class="st1" d="M359.8 74.7c.4.3 1 0 1-.6 0-3.2-2.6-5.7-5.7-5.7-3.2 0-5.7 2.6-5.7 5.7 0 .5.6.8 1 .6 1.4-.8 3-1.3 4.7-1.3 1.7-.1 3.3.4 4.7 1.3zM319 74.7c.4.3 1 0 1-.6 0-3.2-2.6-5.7-5.7-5.7-3.2 0-5.7 2.6-5.7 5.7 0 .5.6.8 1 .6 1.4-.8 3-1.3 4.7-1.3 1.7-.1 3.3.4 4.7 1.3z"/><g><path class="st1" d="M334.9 100c-7.2 0-14.4-2.8-19.7-7.7-.9-.8-.9-2.1-.1-3 .8-.9 2.1-.9 3-.1 4.5 4.2 10.6 6.5 16.8 6.5 6 0 11.9-2.2 16.3-6.2.9-.8 2.2-.7 3 .2.8.9.7 2.2-.2 3-5.2 4.7-12 7.3-19.1 7.3z"/></g><g><circle class="st0" cx="461.8" cy="80.2" r="43.3"/><circle class="st1" cx="484.1" cy="77.2" r="5.6"/><path class="st1" d="M476.8 71.6c-.2 0-.4 0-.5-.1-.7-.3-1-1.1-.8-1.8.1-.3 2.7-6.2 11.7-4.5.8.1 1.3.9 1.1 1.6-.1.8-.9 1.3-1.6 1.1-6.7-1.3-8.5 2.7-8.6 2.8-.3.6-.8.9-1.3.9z"/><circle class="st1" cx="440.4" cy="77.2" r="5.6"/><path class="st1" d="M433 73.2c-.2 0-.4 0-.5-.1-.7-.3-1-1.1-.8-1.8.1-.3 2.7-6.2 11.7-4.5.8.1 1.3.9 1.1 1.6-.1.8-.9 1.3-1.6 1.1-6.7-1.3-8.5 2.7-8.6 2.8-.2.6-.7.9-1.3.9zM466.5 107.8c-1.1 0-2-.9-2.1-2-.1-1.2.8-2.2 2-2.2 6.1-.4 12-3.5 15.8-8.3.7-.9 2.1-1.1 3-.4.9.7 1.1 2.1.4 3-4.5 5.8-11.6 9.5-18.9 10l-.2-.1z"/></g><g><circle class="st0" cx="716" cy="80.2" r="43.3"/><path class="st1" d="M694 85.4c-1.3 0-2.2 1.2-1.8 2.5 2.3 8.3 12.1 14.5 23.8 14.5 11.8 0 21.7-6.3 23.9-14.6.3-1.2-.6-2.3-1.9-2.3h-44z"/><path class="st7" d="M715.9 88.7c6.4 0 12.3-1.2 17-3.2h-34c4.7 2 10.6 3.2 17 3.2z"/><path class="st4" d="M716.3 97.9c-3.4 0-6.5 1.3-8.7 3.4 2.6.7 5.4 1.1 8.2 1.1 3.1 0 6.1-.5 8.9-1.3-2-2-5-3.2-8.4-3.2z"/><path class="st2" d="M759.8 80.4c1.8 1.1 3.3 2.5 4 4.6.7 2 .3 4.4-1.4 5.7-1.5 1.1-3.6 1.1-5.3.2-2.7-1.4-4.5-4.7-5.5-7.4-.9-2.2-2.1-3.7-3.9-5.1-.4-.3-.2-.9.3-.9 3.8.3 8.4.9 11.8 2.9zM672.1 80.4c-1.8 1.1-3.3 2.5-4 4.6-.7 2-.3 4.4 1.4 5.7 1.5 1.1 3.6 1.1 5.3.2 2.7-1.4 4.5-4.7 5.5-7.4.9-2.2 2.1-3.7 3.9-5.1.4-.3.2-.9-.3-.9-3.7.3-8.4.9-11.8 2.9z"/><g><path class="st1" d="M744.6 77c.4.3 1 0 1-.6 0-3.2-2.6-5.7-5.7-5.7-3.2 0-5.7 2.6-5.7 5.7 0 .5.6.8 1 .6 1.4-.8 3-1.3 4.7-1.3 1.7-.1 3.3.4 4.7 1.3zM696.7 77c.4.3 1 0 1-.6 0-3.2-2.6-5.7-5.7-5.7-3.2 0-5.7 2.6-5.7 5.7 0 .5.6.8 1 .6 1.4-.8 3-1.3 4.7-1.3 1.7-.1 3.3.4 4.7 1.3z"/></g><g><path class="st1" d="M688.1 67.2h-.3c-.8-.2-1.2-.9-1.1-1.7.5-2.4 2.1-4.3 4.3-5.3 2.2-1 4.9-.9 6.8.2.7.4.9 1.3.5 1.9-.4.7-1.3.9-1.9.5-1.1-.6-2.8-.7-4.2-.1-1 .4-2.2 1.3-2.7 3.3-.2.7-.8 1.2-1.4 1.2zM743.8 67.2c-.6 0-1.2-.4-1.4-1.1-.4-1.9-1.7-2.9-2.7-3.3-1.4-.6-3.1-.6-4.2.1-.7.4-1.5.2-1.9-.5-.4-.7-.2-1.5.5-1.9 1.9-1.1 4.5-1.2 6.8-.2 2.2 1 3.8 2.8 4.3 5.3.2.8-.3 1.5-1.1 1.7-.1-.1-.2-.1-.3-.1z"/></g></g><g><circle class="st0" cx="588.9" cy="80.2" r="43.3"/><path class="st9" d="M604 105.2c1.3.2 2.2-1.3 1.3-2.3-3.8-4.4-9.8-7.3-16.5-7.3-6.7 0-12.7 2.9-16.5 7.3-.9 1 0 2.5 1.3 2.3 4.5-.7 9.7-1.1 15.1-1.1 5.6-.1 10.8.3 15.3 1.1z"/><path class="st1" d="M604.8 82.6c-.3-.2-.7.1-.6.4.5 2.6 3.1 4.6 6.2 4.6s5.7-2 6.2-4.6c.1-.3-.3-.6-.6-.4-1.6.9-3.5 1.4-5.6 1.4-2.1 0-4-.5-5.6-1.4zM561.8 82.6c-.3-.2-.7.1-.6.4.5 2.6 3.1 4.6 6.2 4.6s5.7-2 6.2-4.6c.1-.3-.3-.6-.6-.4-1.6.9-3.5 1.4-5.6 1.4-2.1 0-4-.5-5.6-1.4zM559.1 75.6c-.2 0-.5-.1-.7-.2-.7-.4-.9-1.3-.5-1.9 2.4-4 6.7-6.7 10.8-6.6.8 0 1.4.7 1.4 1.4 0 .8-.6 1.4-1.4 1.4h-.1c-3.1 0-6.4 2.1-8.2 5.2-.3.5-.8.7-1.3.7zM618.6 75.6c-.5 0-1-.2-1.2-.7-1.8-3.1-5.2-5.2-8.2-5.2h-.1c-.8 0-1.4-.6-1.4-1.4 0-.8.6-1.4 1.4-1.4 4.1-.1 8.5 2.6 10.8 6.6.4.7.2 1.5-.5 1.9-.3.2-.6.2-.8.2z"/><g><path class="st2" d="M622 96.5c3.3 1.9 5.8 4.5 7.1 8.1 1.2 3.5.5 7.8-2.4 10.1-2.6 2-6.4 1.9-9.3.4-4.8-2.5-7.9-8.3-9.8-13.1-1.6-3.9-3.7-6.7-6.9-9-.7-.5-.3-1.7.6-1.6 6.5.6 14.8 1.7 20.7 5.1z"/></g></g><g><circle class="st0" cx="80.5" cy="80.2" r="43.3"/><path class="st1" d="M67.1 78.7c.3.2.7-.1.6-.4-.5-2.6-3.1-4.6-6.2-4.6s-5.7 2-6.2 4.6c-.1.3.3.6.6.4 1.6-.9 3.5-1.4 5.6-1.4 2.1 0 4 .5 5.6 1.4z"/><circle class="st7" cx="97.5" cy="73.7" r="11.9"/><circle class="st1" cx="97.5" cy="73.7" r="4.6"/><g><path class="st1" d="M61.6 91.2c-1.7-.8-3.4 1.1-2.5 2.7 4.6 7.4 12.4 12.3 21.4 12.3 9 0 16.8-4.9 21.4-12.3 1-1.6-.8-3.6-2.5-2.7-5.5 2.6-12 4.1-18.9 4.1-7 0-13.4-1.5-18.9-4.1z"/><path class="st5" d="M80.5 97.5c-3.4 0-6.6-.4-9.7-1v17.1c0 5.3 4.3 9.7 9.7 9.7 5.3 0 9.7-4.3 9.7-9.7V96.4c-3.1.7-6.3 1.1-9.7 1.1z"/></g></g></g><g><circle class="st0" cx="592.7" cy="554.4" r="43.3"/><ellipse class="st1" cx="611.3" cy="549.6" rx="4.6" ry="6.9"/><ellipse class="st1" cx="575.2" cy="549.6" rx="4.6" ry="6.9"/></g><g><circle class="st0" cx="720.8" cy="554.4" r="43.3"/><path class="st1" d="M740.6 568.8h-39.5c-1.2 0-2.1-.9-2.1-2.1 0-1.2.9-2.1 2.1-2.1h39.5c1.2 0 2.1.9 2.1 2.1 0 1.1-1 2.1-2.1 2.1zM705.3 548.5h-9.5c-.8 0-1.4-.6-1.4-1.4 0-.8.6-1.4 1.4-1.4h9.5c.8 0 1.4.6 1.4 1.4 0 .8-.6 1.4-1.4 1.4zM745.8 548.5h-9.5c-.8 0-1.4-.6-1.4-1.4 0-.8.6-1.4 1.4-1.4h9.5c.8 0 1.4.6 1.4 1.4 0 .8-.6 1.4-1.4 1.4z"/></g><g><circle class="st0" cx="80.5" cy="554.4" r="43.3"/><path class="st10" d="M88.1 536.5c-2.8.9-6.2 1.1-7.6 1.1-1.4 0-4.8-.2-7.6-1.1-5.3-1.8-13.7-2.9-20.2-2.7-4.8.1-9.7.8-12.8 1.4-1.4.3-2.2 1.6-1.9 3l.3 1.4c.2.8.8 1.4 1.6 1.7.4.1.8.4 1 .9.6 1.5 3.5 10.3 5.2 13.6 1.3 2.7 4.9 5 13.3 5 11.9 0 16-7.8 17.9-12.9.2-.5.5-1.5.8-2.5.4-1.4 1.2-2.8 1.6-3 .2-.1.5-.2.7-.2.3 0 .5.1.8.2.4.2 1.2 1.6 1.6 3 .3 1 .6 2 .8 2.5 1.9 5.1 6 13 17.9 12.9 8.4 0 12-2.3 13.3-5 1.6-3.3 4.6-12.1 5.2-13.6.2-.5.6-.8 1-.9.8-.3 1.4-.9 1.6-1.7l.3-1.4c.3-1.4-.6-2.7-1.9-3-3.1-.6-8-1.3-12.8-1.4-6.4-.2-14.9.9-20.1 2.7z"/><path class="st11" d="M86.1 544.4c.2 5.8 5.9 11.3 11.1 12.6 7.7 1.9 13.5.2 16.8-6.9 1-2.1 3.1-6.8 3-9.3-.2-4.3-5.7-3.6-9.2-3.7-.4 0-22-.6-21.7 7.3zM75.1 544.4c-.2 5.8-5.9 11.3-11.1 12.6-7.7 1.9-13.5.2-16.8-6.9-1-2.1-3.1-6.8-3-9.3.2-4.3 5.7-3.6 9.2-3.7.4 0 22.1-.6 21.7 7.3z"/><g><path class="st1" d="M89.7 576.5c-1.1 0-2.3-.1-3.5-.3-1.2-.2-2-1.3-1.8-2.4.2-1.2 1.2-1.9 2.4-1.8 6.7 1 12.6-1.5 15.2-6.5.5-1 1.8-1.5 2.8-.9 1 .5 1.5 1.8.9 2.8-2.8 5.8-8.9 9.1-16 9.1z"/></g></g><g><circle class="st0" cx="464.7" cy="554.4" r="43.3"/><path class="st1" d="M473.4 575.3c-.5 0-1-.2-1.3-.5-1.8-1.7-4.3-2.7-7-2.8-3-.1-5.8.9-7.8 2.8-.8.8-2 .7-2.8-.1-.7-.8-.7-2 .1-2.8 2.7-2.6 6.6-4 10.6-3.8 3.6.1 7 1.5 9.5 3.8.8.7.8 2 .1 2.8-.4.4-.9.6-1.4.6zM438.5 540.5c-.3 0-.7-.1-.9-.4-.4-.5-.4-1.3.1-1.7 2.8-2.4 6.4-3.9 10-4.2.7 0 1.3.4 1.3 1.1.1.7-.4 1.3-1.1 1.3-3.2.3-6.2 1.6-8.6 3.6-.2.2-.5.3-.8.3zM490.8 540.5c-.3 0-.6-.1-.8-.3-2.4-2.1-5.5-3.4-8.7-3.6-.7-.1-1.2-.7-1.1-1.3.1-.7.7-1.2 1.3-1.1 3.7.3 7.2 1.8 10 4.2.5.4.6 1.2.1 1.7-.1.3-.4.4-.8.4z"/><ellipse class="st7" cx="483.1" cy="551.9" rx="9.1" ry="9.5"/><ellipse class="st1" cx="483.1" cy="551.9" rx="3.9" ry="4"/><g><ellipse class="st7" cx="446.2" cy="551.9" rx="9.1" ry="9.5"/><ellipse class="st1" cx="446.2" cy="551.9" rx="3.9" ry="4"/></g><g><g class="st3"><circle class="st4" cx="492" cy="570" r="6.7"/></g><g class="st3"><circle class="st4" cx="437.3" cy="570" r="6.7"/></g></g></g><g><linearGradient id="SVGID_2_" gradientUnits="userSpaceOnUse" x1="336.627" y1="501.839" x2="336.627" y2="589.944"><stop offset="0" stop-color="#2a97ff"/><stop offset=".522" stop-color="#75bebe"/><stop offset=".808" stop-color="#f6cd0c"/><stop offset="1" stop-color="#ffce00"/></linearGradient><circle class="st12" cx="336.6" cy="554.4" r="43.3"/><ellipse class="st1" cx="319" cy="555.6" rx="4.4" ry="6.3"/><ellipse class="st1" cx="355.1" cy="555.6" rx="4.4" ry="6.3"/><path class="st1" d="M350 579.5c1.1.2 1.9-1.4 1.2-2.5-3.3-4.8-8.4-7.9-14.1-7.9-5.7 0-10.8 3.1-14.1 7.9-.7 1.1 0 2.8 1.2 2.5 3.9-.8 8.3-1.2 12.9-1.2 4.6-.1 9 .4 12.9 1.2zM363.1 544.3h-.2c-7-1.1-10.6-6.8-10.7-7-.4-.7-.2-1.5.5-1.9.7-.4 1.5-.2 1.9.5.1.1 3.1 4.8 8.7 5.7.8.1 1.3.8 1.2 1.6-.1.6-.7 1.1-1.4 1.1zM311 544.3c-.7 0-1.3-.5-1.4-1.2-.1-.8.4-1.5 1.2-1.6 5.7-.9 8.7-5.7 8.7-5.7.4-.7 1.3-.9 1.9-.5.7.4.9 1.3.5 1.9-.1.2-3.7 5.9-10.7 7-.1.1-.1.1-.2.1z"/><g><path class="st2" d="M319 575.7c0 3.4-2.7 6.1-6.1 6.1-3.4 0-6.1-2.7-6.1-6.1 0-2.6 3.6-8.7 5.3-11.5.4-.6 1.3-.6 1.7 0 1.6 2.7 5.2 8.9 5.2 11.5z"/></g></g><circle class="st0" cx="208.6" cy="554.4" r="43.3"/><g><path class="st1" d="M225.3 571.9c-.5 0-1-.2-1.4-.6-3.5-3.3-8.3-5.2-13.5-5.4-5.8-.2-11.2 1.7-15 5.4-.8.8-2.2.8-3-.1-.8-.8-.8-2.2.1-3 4.6-4.4 11.3-6.8 18.1-6.5 6.2.2 12 2.6 16.2 6.5.9.8.9 2.1.1 3-.5.4-1 .7-1.6.7z"/></g><g><path class="st1" d="M235.7 559.5c-.1 0-.3 0-.4-.1l-9.2-2.7c-.6-.2-1-.6-1-1.2-.1-.6.2-1.1.8-1.4 0 0 7.2-3.7 9.3-4.8.7-.4 1.5-.1 1.9.6.4.7.1 1.5-.6 1.9-1.2.6-4 2.1-6.2 3.2l5.8 1.7c.7.2 1.2 1 1 1.7-.2.7-.8 1.1-1.4 1.1zM183.8 559.5c-.6 0-1.2-.4-1.4-1-.2-.7.2-1.5 1-1.7l5.8-1.7c-2.2-1.1-5-2.6-6.2-3.2-.7-.4-.9-1.2-.6-1.9.4-.7 1.2-.9 1.9-.6 2.1 1.1 9.3 4.8 9.3 4.8.5.3.8.8.8 1.4-.1.6-.5 1.1-1 1.2l-9.2 2.7h-.4z"/><g><path class="st1" d="M237.8 544.5h-.2c-7-1.1-10.6-6.8-10.7-7-.4-.7-.2-1.5.5-1.9.7-.4 1.5-.2 1.9.5.1.1 3.1 4.8 8.7 5.7.8.1 1.3.8 1.2 1.6-.1.6-.7 1.1-1.4 1.1zM181.8 544.5c-.7 0-1.3-.5-1.4-1.2-.1-.8.4-1.5 1.2-1.6 5.7-.9 8.7-5.7 8.7-5.7.4-.7 1.3-.9 1.9-.5.7.4.9 1.3.5 1.9-.1.2-3.7 6-10.7 7-.1 0-.2.1-.2.1z"/></g></g><g><circle class="st0" cx="464.8" cy="719.8" r="43.3"/><path class="st1" d="M449.7 735.1c-1.3-.2-2.2 1.3-1.3 2.3 3.8 4.4 9.8 7.3 16.5 7.3 6.7 0 12.7-2.9 16.5-7.3.9-1 0-2.5-1.3-2.3-4.5.7-9.7 1.1-15.1 1.1-5.6 0-10.8-.4-15.3-1.1zM486.3 720.3c-.4 0-.7-.1-1-.4-3.8-3.8-7.6-.4-8 0-.6.5-1.4.5-2 0-.5-.6-.5-1.4 0-2 2.1-2.1 7.2-4.7 12 0 .6.6.6 1.4 0 2-.3.3-.6.4-1 .4z"/><ellipse class="st1" cx="448.3" cy="717.6" rx="4.6" ry="6"/><path class="st1" d="M438.4 712.4s-.1 0 0 0c-.8-.1-1.3-.6-1.2-1.3.2-3 1.6-5.8 3.8-7.8 2.2-2 5.2-3.1 8.1-3.1.7 0 1.2.6 1.2 1.2 0 .7-.6 1.2-1.2 1.2-2.4 0-4.7.8-6.4 2.4-1.7 1.6-2.8 3.8-3 6.2-.1.8-.7 1.2-1.3 1.2zM487.8 711.5c-.3 0-.5-.1-.8-.3-3.3-2.7-6.7-3-9.8-.8-.5.4-1.3.3-1.7-.3-.4-.5-.3-1.3.3-1.7 4-2.9 8.7-2.5 12.8.9.5.4.6 1.2.2 1.7-.3.3-.7.5-1 .5z"/><g><circle class="st0" cx="592.8" cy="719.8" r="43.3"/><path class="st1" d="M620.2 716.6c.4.3 1 0 1-.6 0-3.2-2.6-5.7-5.7-5.7-3.2 0-5.7 2.6-5.7 5.7 0 .5.6.8 1 .6 1.4-.8 3-1.3 4.7-1.3 1.8-.1 3.4.4 4.7 1.3zM578 716.6c.4.3 1 0 1-.6 0-3.2-2.6-5.7-5.7-5.7-3.2 0-5.7 2.6-5.7 5.7 0 .5.6.8 1 .6 1.4-.8 3-1.3 4.7-1.3s3.4.4 4.7 1.3zM618.4 703.7c-6.1 0-8.8-4.5-9.4-7.1-.2-.8.3-1.5 1.1-1.7.8-.2 1.5.3 1.7 1.1.1.6 1.5 5.8 8.4 4.7.8-.1 1.5.4 1.6 1.2.1.8-.4 1.5-1.2 1.6-.8.2-1.5.2-2.2.2zM570.5 703.7c-.7 0-1.4-.1-2.2-.2-.8-.1-1.3-.8-1.2-1.6.1-.8.8-1.3 1.6-1.2 7 1.1 8.3-4.5 8.4-4.7.2-.8.9-1.2 1.7-1.1.8.2 1.2.9 1.1 1.7-.6 2.7-3.3 7.1-9.4 7.1z"/><g><path class="st1" d="M579.9 723.4c-2.6-.7-5.1 1.2-5.2 3.8v.1c0 11.3 8.4 20.4 18.7 20.4 10.3 0 18.7-9.1 18.7-20.4v-.1c0-2.6-2.6-4.5-5.2-3.8-4 1.1-8.6 1.7-13.5 1.7-4.9-.1-9.5-.6-13.5-1.7z"/><path class="st7" d="M593.4 747.7c3.7 0 7.1-1.2 10-3.2h-20c2.9 2 6.4 3.2 10 3.2z"/></g><g><path class="st2" d="M632.2 719.9c1.3.8 2.3 1.9 2.8 3.4.5 1.4.1 3.2-1.1 4.1-1.1.8-2.6.7-3.8.1-1.9-1.1-3.2-3.5-3.9-5.5-.6-1.6-1.5-2.8-2.7-3.8-.3-.2-.1-.7.3-.6 2.6.4 6 .9 8.4 2.3z"/></g></g><g><circle class="st0" cx="208.9" cy="719.8" r="43.3"/><path class="st7" d="M209.4 727.2c-3.3 0-6.3 1.4-8.3 3.6h16.6c-2.1-2.1-5-3.6-8.3-3.6z"/><path class="st1" d="M216.1 746.9c2.7-2 4.4-5.1 4.4-8.7 0-2.8-1.1-5.3-2.8-7.3h-16.6c-1.8 1.9-2.8 4.5-2.8 7.3 0 3.6 1.7 6.7 4.4 8.7 1.9-1.1 4.2-1.8 6.7-1.8 2.4 0 4.7.6 6.7 1.8z"/><path class="st5" d="M216.1 746.9c-1.9-1.1-4.2-1.8-6.7-1.8s-4.8.6-6.7 1.8c1.9 1.4 4.2 2.2 6.7 2.2s4.8-.9 6.7-2.2z"/><g><path class="st1" d="M182.7 701.8c-.3 0-.7-.1-.9-.4-.4-.5-.4-1.3.1-1.7 2.8-2.4 6.4-3.9 10-4.2.7-.1 1.3.4 1.3 1.1.1.7-.4 1.3-1.1 1.3-3.2.3-6.2 1.6-8.6 3.7-.2.1-.5.2-.8.2zM235 701.8c-.3 0-.6-.1-.8-.3-2.4-2.1-5.5-3.4-8.7-3.7-.7-.1-1.2-.7-1.1-1.3.1-.7.7-1.2 1.3-1.1 3.7.3 7.2 1.8 10 4.2.5.4.6 1.2.1 1.7-.1.3-.4.5-.8.5z"/></g><g><ellipse class="st7" cx="227.3" cy="713.1" rx="9.1" ry="9.5"/><ellipse class="st1" cx="227.3" cy="713.1" rx="3.9" ry="4"/><g><ellipse class="st7" cx="190.4" cy="713.1" rx="9.1" ry="9.5"/><ellipse class="st1" cx="190.4" cy="713.1" rx="3.9" ry="4"/></g></g></g><g><circle class="st0" cx="80.9" cy="719.8" r="43.3"/><path class="st7" d="M98.8 745H63c-2.3 0-4.1-1.8-4.1-4.1v-18c0-2.3 1.8-4.1 4.1-4.1h35.7c2.3 0 4.1 1.8 4.1 4.1v18c.1 2.2-1.8 4.1-4 4.1z"/><path class="st7" d="M101.8 730.4l22.8-11.4v-.3c0-1.5-.1-2.9-.2-4.4l-39.9 19.9 37.5.6c.5-1.4 1-2.8 1.4-4.2l-21.6-.2zM37.5 714.4c-.2 1.4-.2 2.9-.2 4.4v.3L60 730.4l-21.5.4c.4 1.4.8 2.8 1.4 4.2l37.5-.6-39.9-20z"/><g><path class="st1" d="M61.9 713.3c-2 0-3.9-.5-5.6-1.5-1-.6-1.3-1.9-.7-2.9.6-1 1.9-1.3 2.9-.7 2.3 1.4 5.4 1.2 7.6-.4.9-.7 2.3-.5 3 .4.7.9.5 2.3-.4 3-2.1 1.4-4.4 2.1-6.8 2.1zM98.9 713.3c-2.4 0-4.7-.7-6.6-2.1-.9-.7-1.1-2-.4-3 .7-.9 2-1.1 3-.4 2.1 1.6 5.3 1.7 7.6.4 1-.6 2.3-.3 2.9.7.6 1 .3 2.3-.7 2.9-1.9 1-3.9 1.5-5.8 1.5z"/></g></g><g><circle class="st0" cx="720.8" cy="719.8" r="43.3"/><path class="st1" d="M745.9 718.9c.4.3 1 0 1-.6 0-3.2-2.6-5.7-5.7-5.7-3.2 0-5.7 2.6-5.7 5.7 0 .5.6.8 1 .6 1.4-.8 3-1.3 4.7-1.3 1.7-.1 3.3.4 4.7 1.3zM705.1 718.9c.4.3 1 0 1-.6 0-3.2-2.6-5.7-5.7-5.7-3.2 0-5.7 2.6-5.7 5.7 0 .5.6.8 1 .6 1.4-.8 3-1.3 4.7-1.3 1.7-.1 3.3.4 4.7 1.3zM721 744.2c-7.2 0-14.4-2.8-19.7-7.7-.9-.8-.9-2.1-.1-3 .8-.9 2.1-.9 3-.1 4.5 4.2 10.6 6.6 16.8 6.6 6 0 11.9-2.2 16.4-6.2.9-.8 2.2-.7 3 .2.8.9.7 2.2-.2 3-5.3 4.6-12.1 7.2-19.2 7.2z"/><g><path class="st13" d="M720.6 669.4c-14.8 0-42.8 2.8-42.8 13.3s28 13.3 42.8 13.3c14.8 0 42.8-2.8 42.8-13.3s-28-13.3-42.8-13.3zm0 21.3c-24.8 0-37.6-5.6-37.6-7.9 0-.6.9-1.5 2.7-2.4 6.8-6.1 24.6-7.9 35-7.9 10.7 0 29 1.9 35.5 8.2h-.1c1.3.8 2.1 1.5 2.1 2 0 2.4-12.8 8-37.6 8z"/><path class="st14" d="M756.1 680.7c-6.4-6.4-24.7-8.2-35.4-8.2-10.4 0-28.3 1.8-35 7.9 5-2.5 16.7-5.5 34.9-5.5 19.1-.1 31 3.2 35.5 5.8z"/></g></g><g><circle class="st0" cx="336.9" cy="719.8" r="43.3"/><path class="st1" d="M334.8 739.7c-.6 0-1.2-.5-1.3-1.1-.1-.7.4-1.4 1.1-1.6 1.5-.3 4.1-1.5 4.5-2.8.1-.3.2-.6-.3-1.2-.9-1.2-3.4-.1-4.8 1-.6.4-1.4.3-1.9-.3-.4-.6-.3-1.4.3-1.9 2.8-2 6.5-3 8.5-.5 1.2 1.5 1.1 2.9.7 3.9-1 2.7-4.9 4.2-6.6 4.5h-.2z"/><path class="st1" d="M337.6 746.9c-1.7 0-3.6-.8-5.2-2-.6-.4-.7-1.3-.3-1.9.4-.6 1.3-.7 1.9-.3 1.4 1 3.9 2.1 4.8 1 .5-.6.4-1 .3-1.2-.5-1.3-3.1-2.6-4.5-2.8-.7-.1-1.2-.8-1.1-1.6.1-.7.8-1.2 1.6-1.1 1.7.3 5.6 1.8 6.6 4.5.3.9.5 2.3-.7 3.9-1 1.1-2.1 1.5-3.4 1.5z"/><g><path class="st1" d="M353 716.1c-.3-.2-.7.1-.6.4.5 2.6 3.1 4.6 6.2 4.6s5.7-2 6.2-4.6c.1-.3-.3-.6-.6-.4-1.6.9-3.5 1.4-5.6 1.4-2.1 0-4.1-.5-5.6-1.4zM309.9 716.1c-.3-.2-.7.1-.6.4.5 2.6 3.1 4.6 6.2 4.6s5.7-2 6.2-4.6c.1-.3-.3-.6-.6-.4-1.6.9-3.5 1.4-5.6 1.4-2.1 0-4-.5-5.6-1.4z"/><g><path class="st1" d="M307.3 709.1c-.2 0-.5-.1-.7-.2-.7-.4-.9-1.3-.5-1.9 2.4-4 6.8-6.6 10.8-6.6.8 0 1.4.7 1.4 1.4 0 .8-.7 1.4-1.4 1.4h-.1c-3.1 0-6.4 2.1-8.2 5.2-.4.5-.8.7-1.3.7zM366.8 709.1c-.5 0-1-.2-1.2-.7-1.8-3.1-5.1-5.2-8.2-5.2h-.1c-.8 0-1.4-.6-1.4-1.4 0-.8.6-1.4 1.4-1.4h.2c4.1 0 8.3 2.6 10.7 6.6.4.7.2 1.5-.5 1.9-.5.2-.7.2-.9.2z"/></g></g></g></g></g></svg>